<?xml version="1.0" encoding="UTF-8" standalone="no"?>
<!DOCTYPE svg PUBLIC "-//W3C//DTD SVG 1.1//EN" "http://www.w3.org/Graphics/SVG/1.1/DTD/svg11.dtd">
<svg width="100%" height="100%" viewBox="0 0 920 208" version="1.1" xmlns="http://www.w3.org/2000/svg" xmlns:xlink="http://www.w3.org/1999/xlink" xml:space="preserve" xmlns:serif="http://www.serif.com/" style="fill-rule:evenodd;clip-rule:evenodd;stroke-linejoin:round;stroke-miterlimit:2;">
    <g transform="matrix(1,0,0,1,-360.524,-418.146)">
        <g transform="matrix(7.04533,0,0,7.04533,360.494,409.1)">
            <path d="M8.004,1.714L1.147,1.714C0.838,1.714 0.57,1.827 0.344,2.054C0.117,2.28 0.004,2.548 0.004,2.857L0.004,9.714C0.004,10.024 0.117,10.292 0.344,10.518C0.57,10.744 0.838,10.857 1.147,10.857C1.457,10.857 1.725,10.744 1.951,10.518C2.177,10.292 2.29,10.024 2.29,9.714L2.29,4L8.004,4C8.314,4 8.582,3.887 8.808,3.661C9.034,3.435 9.147,3.167 9.147,2.857C9.147,2.548 9.034,2.28 8.808,2.054C8.582,1.827 8.314,1.714 8.004,1.714ZM35.433,21.143C35.123,21.143 34.855,21.256 34.629,21.482C34.403,21.708 34.29,21.976 34.29,22.286L34.29,28L28.576,28C28.266,28 27.998,28.113 27.772,28.339C27.546,28.565 27.433,28.833 27.433,29.143C27.433,29.452 27.546,29.72 27.772,29.946C27.998,30.173 28.266,30.286 28.576,30.286L35.433,30.286C35.742,30.286 36.01,30.173 36.236,29.946C36.463,29.72 36.576,29.452 36.576,29.143L36.576,22.286C36.576,21.976 36.463,21.708 36.236,21.482C36.01,21.256 35.742,21.143 35.433,21.143ZM8.004,28L2.29,28L2.29,22.286C2.29,21.976 2.177,21.708 1.951,21.482C1.725,21.256 1.457,21.143 1.147,21.143C0.838,21.143 0.57,21.256 0.344,21.482C0.117,21.708 0.004,21.976 0.004,22.286L0.004,29.143C0.004,29.452 0.117,29.72 0.344,29.946C0.57,30.173 0.838,30.286 1.147,30.286L8.004,30.286C8.314,30.286 8.582,30.173 8.808,29.946C9.034,29.72 9.147,29.452 9.147,29.143C9.147,28.833 9.034,28.565 8.808,28.339C8.582,28.113 8.314,28 8.004,28ZM35.433,1.714L28.576,1.714C28.266,1.714 27.998,1.827 27.772,2.054C27.546,2.28 27.433,2.548 27.433,2.857C27.433,3.167 27.546,3.435 27.772,3.661C27.998,3.887 28.266,4 28.576,4L34.29,4L34.29,9.714C34.29,10.024 34.403,10.292 34.629,10.518C34.855,10.744 35.123,10.857 35.433,10.857C35.742,10.857 36.01,10.744 36.236,10.518C36.463,10.292 36.576,10.024 36.576,9.714L36.576,2.857C36.576,2.548 36.463,2.28 36.236,2.054C36.01,1.827 35.742,1.714 35.433,1.714Z" style="fill:url(#_Linear1);fill-rule:nonzero;"/>
        </g>
        <g transform="matrix(1,0,0,1,65.5654,238.382)">
            <g transform="matrix(288,0,0,288,557.56,384.244)">
                <path d="M0.11,-0C0.103,-0 0.097,-0.002 0.093,-0.007C0.089,-0.011 0.087,-0.016 0.087,-0.023L0.087,-0.676C0.087,-0.683 0.089,-0.689 0.093,-0.694C0.097,-0.698 0.103,-0.7 0.11,-0.7L0.161,-0.7C0.168,-0.7 0.174,-0.698 0.179,-0.694C0.183,-0.689 0.185,-0.683 0.185,-0.676L0.185,-0.4L0.529,-0.4L0.529,-0.676C0.529,-0.683 0.531,-0.689 0.536,-0.694C0.54,-0.698 0.545,-0.7 0.552,-0.7L0.603,-0.7C0.61,-0.7 0.616,-0.698 0.621,-0.694C0.625,-0.689 0.627,-0.683 0.627,-0.676L0.627,-0.023C0.627,-0.016 0.625,-0.011 0.621,-0.007C0.616,-0.002 0.61,-0 0.603,-0L0.552,-0C0.545,-0 0.54,-0.002 0.536,-0.007C0.531,-0.011 0.529,-0.016 0.529,-0.023L0.529,-0.31L0.185,-0.31L0.185,-0.023C0.185,-0.016 0.183,-0.011 0.179,-0.007C0.174,-0.002 0.168,-0 0.161,-0L0.11,-0Z" style="fill:url(#_Linear2);fill-rule:nonzero;"/>
            </g>
            <g transform="matrix(288,0,0,288,763.192,384.244)">
                <path d="M0.219,0.01C0.186,0.01 0.155,0.003 0.128,-0.01C0.101,-0.023 0.079,-0.041 0.062,-0.064C0.045,-0.087 0.037,-0.112 0.037,-0.141C0.037,-0.187 0.056,-0.224 0.093,-0.251C0.13,-0.278 0.179,-0.296 0.239,-0.305L0.388,-0.326L0.388,-0.355C0.388,-0.387 0.379,-0.412 0.361,-0.43C0.342,-0.448 0.312,-0.457 0.271,-0.457C0.242,-0.457 0.218,-0.451 0.199,-0.439C0.18,-0.427 0.167,-0.412 0.16,-0.393C0.156,-0.383 0.149,-0.378 0.139,-0.378L0.094,-0.378C0.087,-0.378 0.081,-0.38 0.078,-0.385C0.074,-0.389 0.072,-0.394 0.072,-0.4C0.072,-0.41 0.076,-0.422 0.084,-0.437C0.091,-0.452 0.103,-0.466 0.119,-0.48C0.135,-0.494 0.156,-0.506 0.181,-0.516C0.205,-0.525 0.236,-0.53 0.272,-0.53C0.312,-0.53 0.346,-0.525 0.373,-0.515C0.4,-0.504 0.422,-0.49 0.438,-0.473C0.453,-0.456 0.465,-0.436 0.471,-0.414C0.478,-0.392 0.482,-0.37 0.482,-0.347L0.482,-0.023C0.482,-0.016 0.48,-0.011 0.475,-0.007C0.471,-0.002 0.466,-0 0.459,-0L0.413,-0C0.406,-0 0.4,-0.002 0.396,-0.007C0.392,-0.011 0.39,-0.016 0.39,-0.023L0.39,-0.066C0.381,-0.054 0.37,-0.042 0.355,-0.031C0.34,-0.019 0.322,-0.009 0.3,-0.002C0.278,0.006 0.251,0.01 0.219,0.01ZM0.24,-0.065C0.267,-0.065 0.292,-0.071 0.315,-0.083C0.338,-0.094 0.356,-0.112 0.369,-0.137C0.382,-0.162 0.388,-0.193 0.388,-0.23L0.388,-0.258L0.272,-0.241C0.225,-0.234 0.189,-0.223 0.165,-0.207C0.141,-0.192 0.129,-0.172 0.129,-0.148C0.129,-0.129 0.135,-0.114 0.146,-0.102C0.157,-0.089 0.171,-0.08 0.188,-0.074C0.204,-0.068 0.222,-0.065 0.24,-0.065Z" style="fill:url(#_Linear3);fill-rule:nonzero;"/>
            </g>
            <g transform="matrix(288,0,0,288,922.168,384.244)">
                <path d="M0.098,-0C0.091,-0 0.086,-0.002 0.082,-0.007C0.077,-0.011 0.075,-0.016 0.075,-0.023L0.075,-0.687C0.075,-0.694 0.077,-0.699 0.082,-0.704C0.086,-0.708 0.091,-0.71 0.098,-0.71L0.145,-0.71C0.152,-0.71 0.157,-0.708 0.162,-0.704C0.166,-0.699 0.168,-0.694 0.168,-0.687L0.168,-0.339L0.365,-0.503C0.373,-0.51 0.379,-0.514 0.384,-0.517C0.388,-0.519 0.395,-0.52 0.405,-0.52L0.458,-0.52C0.464,-0.52 0.469,-0.518 0.473,-0.514C0.477,-0.51 0.479,-0.505 0.479,-0.499C0.479,-0.496 0.478,-0.493 0.476,-0.49C0.475,-0.487 0.472,-0.483 0.467,-0.48L0.236,-0.288L0.492,-0.039C0.5,-0.032 0.504,-0.026 0.504,-0.021C0.504,-0.015 0.502,-0.01 0.498,-0.006C0.494,-0.002 0.489,-0 0.483,-0L0.431,-0C0.421,-0 0.414,-0.001 0.409,-0.004C0.404,-0.006 0.398,-0.01 0.391,-0.017L0.168,-0.23L0.168,-0.023C0.168,-0.016 0.166,-0.011 0.162,-0.007C0.157,-0.002 0.152,-0 0.145,-0L0.098,-0Z" style="fill:url(#_Linear4);fill-rule:nonzero;"/>
            </g>
            <g transform="matrix(288,0,0,288,1063.86,384.244)">
                <path d="M0.287,0.01C0.236,0.01 0.194,0 0.16,-0.019C0.126,-0.038 0.1,-0.065 0.082,-0.1C0.064,-0.134 0.054,-0.173 0.052,-0.217C0.051,-0.228 0.051,-0.243 0.051,-0.261C0.051,-0.278 0.051,-0.292 0.052,-0.303C0.054,-0.348 0.064,-0.387 0.083,-0.421C0.101,-0.455 0.127,-0.482 0.161,-0.501C0.195,-0.52 0.237,-0.53 0.287,-0.53C0.337,-0.53 0.379,-0.52 0.413,-0.501C0.447,-0.482 0.473,-0.455 0.492,-0.421C0.51,-0.387 0.52,-0.348 0.522,-0.303C0.523,-0.292 0.523,-0.278 0.523,-0.261C0.523,-0.243 0.523,-0.228 0.522,-0.217C0.52,-0.173 0.51,-0.134 0.492,-0.1C0.474,-0.065 0.448,-0.038 0.414,-0.019C0.38,0 0.338,0.01 0.287,0.01ZM0.287,-0.067C0.328,-0.067 0.361,-0.08 0.386,-0.107C0.411,-0.133 0.424,-0.171 0.426,-0.222C0.427,-0.232 0.427,-0.245 0.427,-0.26C0.427,-0.275 0.427,-0.288 0.426,-0.298C0.424,-0.349 0.411,-0.387 0.386,-0.413C0.361,-0.44 0.328,-0.453 0.287,-0.453C0.246,-0.453 0.213,-0.44 0.188,-0.413C0.163,-0.387 0.149,-0.349 0.148,-0.298C0.147,-0.288 0.147,-0.275 0.147,-0.26C0.147,-0.245 0.147,-0.232 0.148,-0.222C0.149,-0.171 0.163,-0.133 0.188,-0.107C0.213,-0.08 0.246,-0.067 0.287,-0.067Z" style="fill:url(#_Linear5);fill-rule:nonzero;"/>
            </g>
        </g>
        <g transform="matrix(3.52267,0,0,3.52267,424.923,465.463)">
            <path d="M34.29,0.571L2.29,0.571C1.671,0.571 1.135,0.798 0.683,1.25C0.23,1.702 0.004,2.238 0.004,2.857L0.004,29.143C0.004,29.762 0.23,30.298 0.683,30.75C1.135,31.202 1.671,31.429 2.29,31.429L34.29,31.429C34.909,31.429 35.445,31.202 35.897,30.75C36.35,30.298 36.576,29.762 36.576,29.143L36.576,2.857C36.576,2.452 36.475,2.071 36.272,1.714C36.07,1.357 35.79,1.077 35.433,0.875C35.076,0.673 34.695,0.571 34.29,0.571ZM34.29,29.143L2.29,29.143L2.29,22.429L11.469,13.536L20.933,22.964C21.123,23.202 21.367,23.315 21.665,23.304C21.963,23.292 22.242,23.19 22.504,23L26.683,19.214L34.183,26.964C34.207,26.964 34.242,26.988 34.29,27.036L34.29,29.143ZM34.29,23.786L27.576,16.893C27.361,16.702 27.117,16.595 26.844,16.571C26.57,16.548 26.314,16.631 26.076,16.821L21.754,20.571L12.326,11.214C12.111,10.952 11.838,10.81 11.504,10.786C11.171,10.762 10.885,10.869 10.647,11.107L2.29,19.214L2.29,2.857L34.29,2.857L34.29,23.786ZM26.29,12C26.695,12 27.076,11.899 27.433,11.696C27.79,11.494 28.07,11.22 28.272,10.875C28.475,10.53 28.576,10.143 28.576,9.714C28.576,9.095 28.35,8.56 27.897,8.107C27.445,7.655 26.909,7.429 26.29,7.429C25.671,7.429 25.135,7.655 24.683,8.107C24.23,8.56 24.004,9.101 24.004,9.732C24.004,10.363 24.23,10.899 24.683,11.339C25.135,11.78 25.671,12 26.29,12Z" style="fill:url(#_Linear6);fill-rule:nonzero;"/>
        </g>
    </g>
    <defs>
        <linearGradient id="_Linear1" x1="0" y1="0" x2="1" y2="0" gradientUnits="userSpaceOnUse" gradientTransform="matrix(129.041,24,-24,129.041,1.47933,6.28571)"><stop offset="0" style="stop-color:rgb(22,234,217);stop-opacity:1"/><stop offset="1" style="stop-color:rgb(116,100,255);stop-opacity:1"/></linearGradient>
        <linearGradient id="_Linear2" x1="0" y1="0" x2="1" y2="0" gradientUnits="userSpaceOnUse" gradientTransform="matrix(3.15673,0.587111,-0.587111,3.15673,-0.875728,-0.58764)"><stop offset="0" style="stop-color:rgb(22,234,217);stop-opacity:1"/><stop offset="1" style="stop-color:rgb(116,100,255);stop-opacity:1"/></linearGradient>
        <linearGradient id="_Linear3" x1="0" y1="0" x2="1" y2="0" gradientUnits="userSpaceOnUse" gradientTransform="matrix(3.15673,0.587111,-0.587111,3.15673,-1.58973,-0.58764)"><stop offset="0" style="stop-color:rgb(22,234,217);stop-opacity:1"/><stop offset="1" style="stop-color:rgb(116,100,255);stop-opacity:1"/></linearGradient>
        <linearGradient id="_Linear4" x1="0" y1="0" x2="1" y2="0" gradientUnits="userSpaceOnUse" gradientTransform="matrix(3.15673,0.587111,-0.587111,3.15673,-2.14173,-0.58764)"><stop offset="0" style="stop-color:rgb(22,234,217);stop-opacity:1"/><stop offset="1" style="stop-color:rgb(116,100,255);stop-opacity:1"/></linearGradient>
        <linearGradient id="_Linear5" x1="0" y1="0" x2="1" y2="0" gradientUnits="userSpaceOnUse" gradientTransform="matrix(3.15673,0.587111,-0.587111,3.15673,-2.63373,-0.58764)"><stop offset="0" style="stop-color:rgb(22,234,217);stop-opacity:1"/><stop offset="1" style="stop-color:rgb(116,100,255);stop-opacity:1"/></linearGradient>
        <linearGradient id="_Linear6" x1="0" y1="0" x2="1" y2="0" gradientUnits="userSpaceOnUse" gradientTransform="matrix(258.082,48,-48,258.082,-15.3313,-3.42857)"><stop offset="0" style="stop-color:rgb(22,234,217);stop-opacity:1"/><stop offset="1" style="stop-color:rgb(116,100,255);stop-opacity:1"/></linearGradient>
    </defs>
</svg>
